<svg width="150" height="150" viewBox="0 0 150 150" fill="none" xmlns="http://www.w3.org/2000/svg">
<circle cx="75" cy="75" r="75" fill="white"/>
<path d="M109.308 93.625L117.6 72.8951C118.527 70.5446 116.808 68 114.085 68H101.254C102.79 64.6964 103.571 61.0804 103.571 57.2857C103.571 56.3667 103.385 55.4873 103.3 54.5893C112.21 52.6205 117.857 49.7634 117.857 46.5714C117.857 42.9821 110.77 39.8125 99.9308 37.8683C97.2768 28.0781 93.058 18 86.9196 18C84.6027 18 82.5402 19.0045 80.808 20.3438C77.404 22.9955 72.6049 22.9955 69.2009 20.3438C67.4777 19.0045 65.4241 18 63.1027 18C56.9643 18 52.7679 28.0804 50.1116 37.8616C39.2478 39.8036 32.1429 42.9777 32.1429 46.5714C32.1429 49.7723 37.7924 52.6272 46.7009 54.5893C46.6161 55.4777 46.4286 56.3705 46.4286 57.2857C46.4286 61.0804 47.2031 64.6964 48.5491 68H35.7188C33.192 68 31.4643 70.5446 32.4018 72.8884L40.6942 93.6183C31.221 100.679 25 111.839 25 124.54C25 128.826 28.4643 132.286 32.7366 132.286H117.254C121.54 132.286 125 128.826 125 124.54C125 111.839 118.772 100.679 109.308 93.625ZM64.2857 124.942L53.5714 82.2857L67.8571 89.4286L71.4286 96.5714L64.2857 124.942ZM85.5134 124.942L78.5714 96.5714L82.1429 89.4286L96.4286 82.2857L85.5134 124.942ZM96.4286 59.5179C96.4286 64.2054 92.5893 68 87.8571 68H85.1049C81.4308 68 78.3438 65.6808 77.1518 62.4219C76.808 61.5045 75.9821 60.8571 75 60.8571C74.0179 60.8571 73.192 61.5045 72.8571 62.4196C71.6518 65.6786 68.5714 68 64.9107 68H62.1585C57.4107 68 53.5714 64.2054 53.5714 59.5179V55.8348C59.8884 56.75 66.9866 57.2857 75 57.2857C83.0134 57.2857 90.1205 56.7538 96.4286 55.8408V59.5179Z" fill="#010326" fill-opacity="0.9"/>
</svg>
